<?xml version="1.0" standalone="no"?>
<svg viewBox="-350 -150 1500 1500" style="width: 585px; height: 585px; justify-content: center; align-self: center; transform: scale(1, 1);" xmlns="http://www.w3.org/2000/svg"><g transform="rotate(360 441.54943466186523 596.3805295077327)"><g transform="translate(0 459)"><path d="M569.933 257.977C561.249 254.881 552.879 251.305 545.253 246.045C523.27 229.682 508.936 205.057 495.392 181.726C476.314 147.793 462.723 111.635 453.328 73.915C449.291 57.709 447.92 38.919 438.748 24.551C417.956 -5.53401 356.987 -1.63601 324.612 3.64499C302.932 7.48099 298.451 31.743 293.527 49.696C289.427 64.613 286.743 79.699 284.49 94.987C279.13 98.511 273.079 101.373 267.311 103.866C204.452 123.141 193.404 158.875 169.395 214.073C128.844 294.302 18.8088 325.715 2.18783 420.664C-8.52117 483.349 21.9318 542.322 53.3288 594.434C82.5688 651.355 123.39 678.675 188.399 665.227C249.374 651.549 307.974 628.668 367.876 610.987C396.889 603.854 425.856 585.3 456.375 591.769C519.26 605.892 583.871 612.532 648.317 610.699C738.801 614.358 738.787 527.513 729.5 460.26C722.995 355.599 670.205 288.395 569.933 257.977L569.933 257.977Z" transform="translate(90.00037 -39.99969)" fill="#FFFFFF" stroke="none"></path><path d="M794.691 379.885C794.177 383.043 793.572 385.897 792.138 388.798C790.279 392.564 787.675 396.045 784.568 398.93C794.01 419.989 797.814 443.248 798.848 466.184C799.592 485.591 798.788 505.366 795.001 524.457C792.066 539.262 786.359 553.446 776.101 564.713C767.629 574.018 756.623 580.535 744.822 584.684C724.011 592 701.218 592 679.343 589.928C679.829 592.002 680.232 594.075 680.648 596.036C681.984 602.329 683.405 659.119 686.264 672.05C687.473 677.52 688.066 684.97 691.321 689.57C694.417 693.946 696.183 698.84 695.089 704.248C694.27 708.299 691.75 713.34 688.789 716.284C687.399 717.664 687.103 718.253 686.625 718.534C685.746 719.052 684.252 718.525 674.199 719.962C554.944 737 258.844 747.2 101.32 713.336C94.9797 720.916 81.2917 721.231 75.7457 711.882C72.7921 706.904 72.5839 699.582 72.4062 693.331C72.3667 691.944 72.3288 690.61 72.2627 689.366C71.7947 680.547 68.9227 608.328 68.0587 590.024C67.924 587.171 67.7834 584.317 67.6428 581.464C66.8942 566.267 66.1451 551.062 66.2807 535.845C66.3607 526.827 66.7427 517.803 67.6357 508.826C67.9957 505.221 68.0347 499.682 69.9067 495.973C64.8607 481.336 58.5817 467.233 51.1207 453.66C38.9077 450.503 27.0537 446.045 15.8167 440.297C10.6977 437.68 5.36067 435.47 3.10267 429.865C1.09767 424.885 -0.205331 419.82 0.0266694 414.368C0.612669 400.589 3.06067 386.643 5.01767 373.002C7.04267 358.885 9.39967 344.816 12.0987 330.812C20.1557 289.016 29.7697 246.559 46.5427 207.297C62.9817 168.825 87.8947 135.92 123.257 113.04C163.377 87.0808 211.808 72.6538 258.844 66.3328C259.776 66.2075 260.704 66.062 261.628 65.9172C265.973 65.236 270.229 64.5688 274.488 66.0738C274.792 66.1813 275.101 66.2979 275.412 66.4155C276.666 66.8889 277.966 67.3799 279.234 67.3678C281.667 67.3448 284.357 66.5468 286.823 66.2588C293.509 65.4778 300.236 65.1348 306.949 64.6658C312.385 64.2878 318.279 64.2498 323.418 62.2048C334.395 57.8368 340.188 20.1098 341.96 14.0308C343.225 9.69184 344.547 3.30184 348.571 0.802843C350.705 -0.521157 354.159 -0.207157 355.842 1.74184C358.971 5.36231 357.852 11.564 356.911 16.7842C356.659 18.1808 356.419 19.507 356.278 20.6948C355.451 27.6258 352.63 78.5528 315.437 81.0528C281.291 83.348 281.572 86.2632 281.848 89.1198C281.872 89.3748 281.897 89.6293 281.897 89.8828C286.357 97.8228 293.101 108.328 298.802 115.135C306.403 124.208 314.804 132.739 323.85 140.377C353.611 165.509 392.588 180.01 431.606 179.382C452.066 179.053 471.029 174.057 484.741 158.006C497.546 143.016 504.724 116.424 510.138 97.7128C497.288 81.6958 491.704 60.1978 496.569 44.2078C498.023 39.4285 500.777 35.1878 506.05 38.3918C510.489 41.0888 510.132 53.8958 511.271 58.4538C513.648 67.9698 518.892 73.1968 525.49 80.6798C530.16 80.3038 534.529 82.1578 537.8 85.5528C567.749 92.8868 596.421 102.286 620.5 122.238C639.544 138.018 654.709 157.973 668.622 178.263C684.893 201.991 700.417 226.258 716.207 250.309C734 277.411 751.765 304.53 769.652 331.571C774.032 338.193 778.419 344.81 782.816 351.421C785.014 354.727 787.215 358.031 789.418 361.333C791.413 364.321 794.192 367.454 795.212 370.957C795.947 373.483 795.411 376.18 794.971 378.393C794.866 378.921 794.766 379.421 794.691 379.885ZM623.983 371.422C631.544 376.422 637.903 384.003 643.008 391.981C621.696 389.764 600.421 387.208 579.193 384.298C581.972 382.522 584.777 380.785 587.646 379.145C588.559 378.63 589.501 378.088 590.466 377.531C600.569 371.711 613.315 364.368 623.983 371.422ZM262.96 423.524C264.482 426.937 265.993 432.891 269.898 434.42C272.95 435.615 277.089 435.098 280.767 434.639C282.104 434.473 283.38 434.314 284.521 434.247C309.179 432.803 334.259 435.301 358.25 441.154C379.688 446.384 400.104 454.807 419.291 465.665C438.121 476.319 455.845 488.779 474.42 499.854C512.509 522.566 553.793 539.318 596.864 549.846C619.102 555.282 641.892 559.338 664.576 562.405C680.749 564.591 697.311 565.99 713.621 564.68C727.654 563.553 742.78 559.969 753.501 550.289C767.661 537.504 770.402 517.536 771.678 499.484C773.067 477.833 772.853 455.801 767.935 434.573C765.582 424.417 761.998 414.964 757.4 405.624C754.767 400.274 749.956 393.6 748.888 387.113C730.006 386.115 711.815 389.696 694.398 396.263C696.568 396.395 698.737 396.527 700.906 396.67C706.23 397.023 711.543 397.476 716.835 398.157C721.037 398.697 726.366 398.731 730.044 401.072C735.949 404.827 735.796 413.346 731.077 417.965C726.059 422.875 716.507 421.762 709.19 420.91C707.816 420.75 706.52 420.599 705.349 420.499C667.205 417.245 629.132 413.538 591.179 408.473C552.441 403.303 513.974 396.715 475.505 389.858C436.991 382.993 398.181 376.591 359.007 375.313C339.667 374.682 320.221 375.362 301.058 378.17C283.236 380.784 266.506 386.225 249.302 391.129C253.833 401.936 258.188 412.821 262.96 423.524ZM242.096 423.552C244.617 431.733 246.546 441.074 251.927 447.948C257.257 454.76 265.298 457.164 273.628 457.77C279.525 458.198 285.463 458.214 291.398 458.229C295.571 458.24 299.744 458.251 303.9 458.406C324.545 459.173 344.907 462.526 364.643 468.677C383.035 474.41 400.108 483.352 416.554 493.272C431.762 502.446 446.524 512.295 461.737 521.441C457.688 523.297 453.685 525.305 449.66 527.053C441.218 530.719 432.724 534.256 424.192 537.705C407.367 544.505 390.471 551.14 373.402 557.304C338.984 569.733 304 580.592 268.595 589.842C251.709 594.254 234.583 599.407 217.04 600.141C201.484 600.791 187.075 596.394 174.529 587.145C148.507 567.961 127.804 540.271 111.068 512.958C101.125 496.731 92.4477 479.681 85.2707 462.052C81.6407 453.137 78.3487 444.085 75.3857 434.927C73.9957 430.627 72.6777 426.303 71.4297 421.959C70.8807 420.049 70.3547 418.133 69.8337 416.215C96.4427 408.095 123.368 400.765 150.925 396.696C165.638 394.523 180.547 393.423 195.421 393.583C202.804 393.662 210.183 394.061 217.527 394.823C221.48 395.233 225.417 395.761 229.337 396.415C230.957 396.684 232.622 397.082 234.292 397.375C236.843 406.116 239.415 414.85 242.096 423.552Z" transform="translate(41.99993 -1.999843)" fill="#000000" fill-rule="evenodd" stroke="none"></path></g><g transform="translate(225 0)"><g><g><path d="M333.415 93.2216C329.554 69.8624 342.226 65.0158 333.415 42.8109C313.833 1.66731 260.468 3.44007 221.308 0.276637C177.63 -1.39736 133.422 4.36885 93.1557 21.875C83.5377 26.056 74.2867 30.9732 65.4187 36.5599C57.7507 41.3913 58.8047 50.5773 63.6397 55.5884C28.7747 104.96 48.7157 171.232 20.8967 223.202C15.7577 232.491 8.96066 240.821 4.49366 250.487C-2.29634 265.18 -2.73134 286.233 12.6667 295.99C34.3537 307.631 46.4557 284.584 57.1117 317.993C110.33 434.483 217.329 441.044 318.905 380.31C327.693 375.422 336.662 369.897 343.298 362.217C358.361 345.266 356.587 321.428 356.92 300.259C357.106 287.854 357.137 275.447 357.016 263.039C356.542 212.781 339.885 143.065 333.415 93.2216Z" transform="translate(52 80)" fill="#FFFFFF" stroke="none"></path><path d="M328.858 2.05735C261.958 -4.86265 192.397 5.68736 131.067 33.5074C98.6176 48.2274 68.8166 68.4874 42.6976 92.7374C37.9276 91.3974 32.7076 91.1174 28.3676 91.8674C21.2676 93.0974 14.7676 97.1574 10.5076 102.957C4.02762 111.757 4.25762 122.977 9.17762 131.897C8.39662 132.526 7.67762 133.247 7.01762 134.026C1.82762 140.217 2.36762 148.207 6.17762 154.977C7.24342 156.875 9.16081 158.976 11.1901 161.199C15.3299 165.734 19.9355 170.779 18.7276 175.657C17.9176 178.967 14.9776 182.067 13.2676 184.977C11.1376 188.597 9.33762 192.377 7.73762 196.257C-4.71818 226.333 -0.00202393 258.647 7.02466 289.34L7.65708 292.088C9.04719 298.235 10.3267 305.444 12.6176 312.087C-4.37238 335.487 -0.292376 375.167 27.4976 388.417C34.3276 391.677 41.9276 393.517 49.5176 393.267C53.4776 393.127 57.6076 392.587 61.3576 391.287C63.2276 390.637 65.0776 389.807 66.5276 388.477C70.0076 406.887 77.9576 423.847 87.9476 439.797C93.5776 448.767 100.108 457.727 107.668 465.177C115.658 473.037 129.448 480.717 139.189 471.047C142.508 467.757 141.439 462.647 137.788 460.207C130.948 455.607 123.708 452.787 117.668 446.937C110.948 440.427 104.588 433.397 98.5876 426.227C90.0312 416.005 82.5119 404.857 75.1567 393.666L69.1576 384.517C69.171 384.487 69.1821 384.457 69.1921 384.427L69.2476 384.237C69.2636 384.143 69.2788 384.052 69.2933 383.963L69.4386 383.026C69.4725 382.954 69.5155 382.863 69.5663 382.753L69.8076 382.207C71.6466 378.677 69.3576 374.617 65.3576 374.446C64.0719 374.446 63.8943 374.407 64.8177 374.321L65.1976 374.287C63.8276 373.487 62.3476 373.087 60.7476 373.087C58.8776 373.087 57.0976 373.727 55.3076 374.167C52.6676 374.817 50.3166 375.276 47.5976 375.267C42.0176 375.247 36.6376 373.637 31.9276 370.667C21.0476 363.807 17.9076 349.097 19.6676 337.057C20.1676 333.647 20.9876 330.427 22.1576 327.427C23.6076 328.657 25.2276 329.707 27.0376 330.557C27.3076 330.687 27.5276 330.317 27.2776 330.147C25.5076 329.007 23.9876 327.647 22.6886 326.127C25.9476 318.507 31.4576 312.337 39.2876 308.007C44.2276 305.276 49.8076 303.977 55.2976 304.167C55.3166 304.327 55.3476 304.487 55.3776 304.647C55.9783 307.776 57.4624 309.353 59.6223 311.246L60.3966 311.917C63.3476 314.437 67.1276 314.207 69.5076 311.837L69.5666 311.917C70.3276 311.167 70.9776 310.467 71.5376 309.776C72.6466 310.607 73.6976 311.537 74.6886 312.567C75.0576 312.946 75.6776 312.457 75.4276 311.997C74.6466 310.587 73.7676 309.257 72.7876 308.026C74.0576 305.907 74.5476 303.667 74.5576 300.387C74.5642 297.003 74.4699 293.608 74.3758 290.218C74.3414 288.98 74.307 287.743 74.2776 286.507C74.0666 277.577 73.6076 268.647 73.2576 259.717C73.1717 257.481 72.9894 255.167 72.8046 252.821C72.3654 247.245 71.9123 241.493 72.7076 236.207C73.3663 231.834 76.0088 230.809 79.648 229.747L84.3783 228.38C95.5003 225.123 106.766 221.046 109.178 207.897C110.675 199.71 108.189 192.058 105.694 184.378C103.907 178.879 102.116 173.364 101.778 167.627C101.058 155.577 104.758 143.307 111.608 133.337C118.248 135.057 124.858 136.887 131.608 138.237C140.948 140.117 150.317 141.797 159.718 143.317C178.189 146.307 196.718 148.696 215.388 150.087C252.808 152.867 290.508 151.467 327.628 145.877C332.908 145.087 338.168 144.157 343.388 143.007C343.358 143.897 343.317 144.797 343.268 145.696C342.978 150.717 342.838 155.707 342.828 160.727C342.658 162.037 342.698 163.457 342.939 165.007L343.218 166.817C343.418 168.077 343.918 169.227 344.658 170.237C346.439 198.037 350.189 225.687 353.758 253.327L354.608 259.939C358.846 293 362.863 326.098 366.238 359.257C366.538 362.197 366.894 365.184 367.254 368.201C368.86 381.673 370.537 395.733 367.588 408.797C364.668 421.767 356.388 431.847 346.078 439.907C321.848 458.877 291.468 471.398 261.888 479.077C246.048 483.187 228.918 487.287 212.468 487.097C206.578 487.026 200.328 486.317 194.939 483.776C190.335 481.617 187.444 477.727 184.805 473.541L184.298 472.727C182.098 469.177 175.678 469.377 174.788 473.967C172.138 487.557 184.439 496.017 196.168 499.297C209.517 503.032 223.421 501.296 236.916 499.236L239.248 498.877C274.208 493.457 307.478 481.776 339.088 466.087C353.078 459.147 366.088 449.797 375.628 437.317C386.258 423.397 389.548 406.927 388.618 389.677C387.578 370.667 384.578 351.607 382.178 332.737L381.43 326.903C379.178 309.4 376.826 291.908 374.198 274.457C369.168 241.026 363.718 207.397 354.698 174.776C354.897 174.757 355.098 174.737 355.298 174.707C360.998 173.847 364.358 169.497 364.848 163.887L365.768 153.357L366.267 153.389C382.813 154.407 404.315 152.364 411.948 135.227C414.608 129.257 415.278 122.627 414.038 116.637C425.078 113.776 435.328 107.807 443.228 99.5574C447.328 95.2764 447.038 89.0874 443.228 84.7474C440.968 82.1574 438.558 79.8374 436.018 77.7574C443.228 75.1964 449.988 70.3974 453.748 63.7074C458.588 55.0974 456.689 44.5574 449.918 37.5874C444.1 31.5899 435.848 28.6654 428.193 25.719L425.475 24.6686C394.464 12.7839 361.878 5.46756 328.858 2.05735ZM54.9381 328.377C45.4381 327.567 37.7381 330.787 30.7671 336.937C30.0781 337.537 30.8371 338.477 31.5971 338.347C38.5071 337.127 46.6771 338.497 53.2781 340.627C60.6271 343.007 64.5781 348.007 70.4981 352.437C76.9981 357.297 86.0281 347.807 81.5971 341.337C75.9881 333.147 64.4881 329.196 54.9381 328.377Z" transform="translate(37.99998 0.0003450957)" fill="#000000" fill-rule="evenodd" stroke="none"></path></g></g><g transform="translate(159 186)"><g><path d="M175.373 49.5872C175.699 49.4437 175.991 49.2049 176.203 48.8583C178.978 44.3099 179.267 38.8813 178.039 33.5637C176.563 27.172 172.899 20.9588 168.944 16.7559C163.959 11.4582 157.895 7.75374 151.246 4.94731C150.762 4.74287 150.267 4.53098 149.763 4.31514C142.964 1.40541 134.597 -2.01031 127.865 1.47064C125.161 2.86951 123.673 5.20381 123.256 7.7496C122.814 10.4534 123.597 13.4099 125.462 15.7216C128.557 19.5594 133.339 20.3533 138.087 21.0465C139.602 21.2677 141.106 21.486 142.53 21.8229C147.429 22.9821 152.604 24.4361 157.104 26.7244C166.253 31.3762 170.54 38.5898 172.747 48.2853C172.837 48.6781 173.037 48.9988 173.3 49.2406C173.575 49.4928 173.921 49.6579 174.285 49.7192C174.651 49.7808 175.032 49.7375 175.373 49.5872ZM58.3942 19.1934C55.0693 22.4329 51.1339 22.9347 47.1526 23.381C44.9405 23.6313 43.1746 23.8331 41.4369 24.2252C36.6605 25.3034 31.9393 26.9272 27.6319 29.2659C23.1292 31.7106 18.2224 34.659 14.6922 38.4361C13.8528 39.3349 13.0615 40.278 12.2691 41.2232C11.5465 42.0851 10.8505 42.9149 10.1169 43.7149C9.27449 44.6339 8.47449 45.597 7.67875 46.5576C7.1867 47.3681 7.0895 47.5675 6.99041 47.775C6.8413 48.0869 6.66786 48.4359 6.46976 48.8103C6.19845 49.323 5.88066 49.8843 5.54784 50.3932C4.9941 51.3234 4.69697 51.5796 4.44022 51.6942C4.01419 51.8839 3.61015 51.9774 3.21817 51.9268C2.85064 51.8793 2.50438 51.7028 2.16244 51.4138C0.455387 49.9715 -0.0480658 47.6046 0.00353523 45.092C0.0818393 41.2793 1.48813 37.0578 2.78452 34.4628C5.79888 28.4331 9.97938 22.1649 15.0062 17.6646C20.7422 12.5276 27.0177 8.63869 34.2256 5.95894C38.705 4.29304 43.8913 2.76391 48.7713 2.95706C52.284 3.09609 55.6373 4.14026 58.4066 6.74782C60.1072 8.34853 60.9235 10.6254 60.9235 12.9006C60.9235 15.2211 60.0757 17.5554 58.3942 19.1934ZM164.634 78.3299C166.478 78.8824 167.779 78.6212 169.441 77.7551C170.719 77.0896 171.589 76.0387 172.088 74.8117C172.599 73.5559 172.706 72.1077 172.454 70.7659C171.405 65.1948 168.042 60.2513 163.503 57.0672C159.091 53.9728 153.589 52.5435 148.048 53.7341C144.003 54.6036 138.007 58.4424 134.85 63.1243C133.504 65.1203 132.671 67.2595 132.581 69.3723C132.495 71.387 133.008 73.4183 135.676 76.096C135.935 76.177 136.208 76.2208 136.477 76.2208C137.138 76.2208 137.821 75.9439 138.274 75.5441C139.469 74.4935 140.311 73.1636 141.178 71.7329C141.641 70.9679 142.102 70.1976 142.69 69.5195C144.449 67.4927 147.002 65.7736 149.683 65.3262C152.167 64.911 154.406 65.6469 156.181 67.0355C158.256 68.6601 159.713 71.1522 160.252 73.8146C160.472 74.8933 161.036 75.8657 161.818 76.6477C162.607 77.4367 163.615 78.0237 164.634 78.3299ZM46.1749 69.1109C43.7479 67.5587 40.8928 67.0259 37.7287 68.4655C35.256 69.5899 30.9192 73.3385 27.9011 78.2662C25.8363 81.6374 24.3721 85.5922 24.6769 89.7117C24.7477 90.6684 24.3942 91.3738 23.8366 91.8954C23.3962 92.3073 22.7601 92.61 22.013 92.7047C21.3786 92.785 20.6686 92.7125 20.0913 92.5324C18.9931 92.1896 18.4119 91.4772 18.1929 90.8957C16.0797 85.2836 16.9901 79.0208 19.3585 73.3707C22.5547 65.7456 28.3592 59.3585 32.1622 57.2993C38.6698 53.7742 46.347 53.612 52.8639 57.2031C58.4114 60.2596 61.8802 65.1942 65.3301 70.2242C66.0635 71.2934 66.7914 72.3548 67.5436 73.3976C69.0513 75.487 69.2013 77.5593 68.6175 79.3363C67.9707 81.3049 66.3215 82.9663 64.2592 83.8357C62.353 84.6393 60.1407 84.7524 58.1831 83.9268C56.5293 83.2293 55.0117 81.8695 54.0513 79.5625C52.434 75.6771 49.7393 71.3904 46.1749 69.1109ZM127.748 115.98C135.872 104.601 124.366 93.898 116.814 89.3079C114.836 87.8879 116.406 83.1842 120.634 83.9112C159.031 90.5082 139.136 156.649 90.112 120.354C84.2754 115.645 91.3434 105.275 97.6342 109.307C97.9532 109.552 98.2876 109.81 98.6364 110.08C105.704 115.544 118.636 125.542 127.748 115.98ZM117.042 185.1C109.675 187.233 101.768 187.424 94.2589 185.221C87.4481 183.222 80.4549 178.823 75.4423 173.003C70.9894 167.832 68.1055 161.549 68.2187 154.842C68.2316 154.076 68.5055 153.436 68.9268 152.94C69.3804 152.406 70.014 152.039 70.6926 151.88C71.3906 151.716 72.1285 151.774 72.7568 152.059C73.3256 152.318 73.8129 152.757 74.1176 153.398C74.8879 154.41 75.6553 155.407 76.4257 156.376C82.6196 164.024 88.618 169.74 97.9319 171.79C102.985 172.903 108.032 172.409 112.663 170.712C117.62 168.895 122.102 165.7 125.613 161.612C127.2 159.765 129.074 159.011 130.905 158.998C132.982 158.983 135.034 159.948 136.579 161.49C138.099 163.006 139.116 165.065 139.209 167.219C139.29 169.11 138.673 171.085 137.032 172.848C131.626 178.652 124.621 182.904 117.042 185.1Z" transform="translate(54.00004 55.05923)" fill="#000000" fill-rule="evenodd" stroke="none"></path></g></g><g transform="translate(123 338)"></g><g transform="translate(47 241)"></g></g></g></svg>